<mxfile host="app.diagrams.net" modified="2023-11-15T12:32:08.629Z" agent="Mozilla/5.0 (Windows NT 10.0; Win64; x64) AppleWebKit/537.36 (KHTML, like Gecko) Chrome/119.0.0.0 Safari/537.36" etag="NQQ5WDHctemeEDRX-GF1" version="22.1.1" type="github">
  <diagram name="Page-1" id="2YBvvXClWsGukQMizWep">
    <mxGraphModel dx="3000" dy="1617" grid="1" gridSize="10" guides="1" tooltips="1" connect="1" arrows="1" fold="1" page="1" pageScale="1" pageWidth="850" pageHeight="1100" math="0" shadow="0">
      <root>
        <mxCell id="0" />
        <mxCell id="1" parent="0" />
        <mxCell id="jQxVS3LR43WCqaB9roRx-2" value="Console" style="shape=umlLifeline;perimeter=lifelinePerimeter;whiteSpace=wrap;container=1;dropTarget=0;collapsible=0;recursiveResize=0;outlineConnect=0;portConstraint=eastwest;newEdgeStyle={&quot;edgeStyle&quot;:&quot;elbowEdgeStyle&quot;,&quot;elbow&quot;:&quot;vertical&quot;,&quot;curved&quot;:0,&quot;rounded&quot;:0};size=65;" vertex="1" parent="1">
          <mxGeometry x="220" y="20" width="150" height="1850" as="geometry" />
        </mxCell>
        <mxCell id="jQxVS3LR43WCqaB9roRx-51" value="" style="html=1;points=[[0,0,0,0,5],[0,1,0,0,-5],[1,0,0,0,5],[1,1,0,0,-5]];perimeter=orthogonalPerimeter;outlineConnect=0;targetShapes=umlLifeline;portConstraint=eastwest;newEdgeStyle={&quot;curved&quot;:0,&quot;rounded&quot;:0};" vertex="1" parent="jQxVS3LR43WCqaB9roRx-2">
          <mxGeometry x="70" y="1730" width="10" height="60" as="geometry" />
        </mxCell>
        <mxCell id="jQxVS3LR43WCqaB9roRx-3" value="userAuthenticationService" style="shape=umlLifeline;perimeter=lifelinePerimeter;whiteSpace=wrap;container=1;dropTarget=0;collapsible=0;recursiveResize=0;outlineConnect=0;portConstraint=eastwest;newEdgeStyle={&quot;edgeStyle&quot;:&quot;elbowEdgeStyle&quot;,&quot;elbow&quot;:&quot;vertical&quot;,&quot;curved&quot;:0,&quot;rounded&quot;:0};size=65;" vertex="1" parent="1">
          <mxGeometry x="545" y="20" width="203" height="1850" as="geometry" />
        </mxCell>
        <mxCell id="jQxVS3LR43WCqaB9roRx-4" value="InMemoryUserRepository" style="shape=umlLifeline;perimeter=lifelinePerimeter;whiteSpace=wrap;container=1;dropTarget=0;collapsible=0;recursiveResize=0;outlineConnect=0;portConstraint=eastwest;newEdgeStyle={&quot;edgeStyle&quot;:&quot;elbowEdgeStyle&quot;,&quot;elbow&quot;:&quot;vertical&quot;,&quot;curved&quot;:0,&quot;rounded&quot;:0};size=65;" vertex="1" parent="1">
          <mxGeometry x="798" y="20" width="199" height="1850" as="geometry" />
        </mxCell>
        <mxCell id="jQxVS3LR43WCqaB9roRx-5" value="FakeOtpGenerator" style="shape=umlLifeline;perimeter=lifelinePerimeter;whiteSpace=wrap;container=1;dropTarget=0;collapsible=0;recursiveResize=0;outlineConnect=0;portConstraint=eastwest;newEdgeStyle={&quot;edgeStyle&quot;:&quot;elbowEdgeStyle&quot;,&quot;elbow&quot;:&quot;vertical&quot;,&quot;curved&quot;:0,&quot;rounded&quot;:0};size=65;" vertex="1" parent="1">
          <mxGeometry x="1047" y="20" width="150" height="1850" as="geometry" />
        </mxCell>
        <mxCell id="jQxVS3LR43WCqaB9roRx-6" value="SignInManager" style="shape=umlLifeline;perimeter=lifelinePerimeter;whiteSpace=wrap;container=1;dropTarget=0;collapsible=0;recursiveResize=0;outlineConnect=0;portConstraint=eastwest;newEdgeStyle={&quot;edgeStyle&quot;:&quot;elbowEdgeStyle&quot;,&quot;elbow&quot;:&quot;vertical&quot;,&quot;curved&quot;:0,&quot;rounded&quot;:0};size=65;" vertex="1" parent="1">
          <mxGeometry x="1247" y="20" width="150" height="1850" as="geometry" />
        </mxCell>
        <mxCell id="jQxVS3LR43WCqaB9roRx-54" value="" style="html=1;points=[[0,0,0,0,5],[0,1,0,0,-5],[1,0,0,0,5],[1,1,0,0,-5]];perimeter=orthogonalPerimeter;outlineConnect=0;targetShapes=umlLifeline;portConstraint=eastwest;newEdgeStyle={&quot;curved&quot;:0,&quot;rounded&quot;:0};" vertex="1" parent="jQxVS3LR43WCqaB9roRx-6">
          <mxGeometry x="70" y="1000" width="10" height="80" as="geometry" />
        </mxCell>
        <mxCell id="jQxVS3LR43WCqaB9roRx-55" value="" style="html=1;points=[[0,0,0,0,5],[0,1,0,0,-5],[1,0,0,0,5],[1,1,0,0,-5]];perimeter=orthogonalPerimeter;outlineConnect=0;targetShapes=umlLifeline;portConstraint=eastwest;newEdgeStyle={&quot;curved&quot;:0,&quot;rounded&quot;:0};" vertex="1" parent="jQxVS3LR43WCqaB9roRx-6">
          <mxGeometry x="70" y="1157" width="10" height="80" as="geometry" />
        </mxCell>
        <mxCell id="jQxVS3LR43WCqaB9roRx-7" value="IOtpSender" style="shape=umlLifeline;perimeter=lifelinePerimeter;whiteSpace=wrap;container=1;dropTarget=0;collapsible=0;recursiveResize=0;outlineConnect=0;portConstraint=eastwest;newEdgeStyle={&quot;edgeStyle&quot;:&quot;elbowEdgeStyle&quot;,&quot;elbow&quot;:&quot;vertical&quot;,&quot;curved&quot;:0,&quot;rounded&quot;:0};size=65;" vertex="1" parent="1">
          <mxGeometry x="1447" y="20" width="150" height="1850" as="geometry" />
        </mxCell>
        <mxCell id="jQxVS3LR43WCqaB9roRx-8" value="IUserRepository" style="shape=umlLifeline;perimeter=lifelinePerimeter;whiteSpace=wrap;container=1;dropTarget=0;collapsible=0;recursiveResize=0;outlineConnect=0;portConstraint=eastwest;newEdgeStyle={&quot;edgeStyle&quot;:&quot;elbowEdgeStyle&quot;,&quot;elbow&quot;:&quot;vertical&quot;,&quot;curved&quot;:0,&quot;rounded&quot;:0};size=65;" vertex="1" parent="1">
          <mxGeometry x="1647" y="20" width="150" height="1850" as="geometry" />
        </mxCell>
        <mxCell id="jQxVS3LR43WCqaB9roRx-59" value="" style="html=1;points=[[0,0,0,0,5],[0,1,0,0,-5],[1,0,0,0,5],[1,1,0,0,-5]];perimeter=orthogonalPerimeter;outlineConnect=0;targetShapes=umlLifeline;portConstraint=eastwest;newEdgeStyle={&quot;curved&quot;:0,&quot;rounded&quot;:0};" vertex="1" parent="jQxVS3LR43WCqaB9roRx-8">
          <mxGeometry x="70" y="1030" width="10" height="50" as="geometry" />
        </mxCell>
        <mxCell id="jQxVS3LR43WCqaB9roRx-9" value="IExternalAccountService" style="shape=umlLifeline;perimeter=lifelinePerimeter;whiteSpace=wrap;container=1;dropTarget=0;collapsible=0;recursiveResize=0;outlineConnect=0;portConstraint=eastwest;newEdgeStyle={&quot;edgeStyle&quot;:&quot;elbowEdgeStyle&quot;,&quot;elbow&quot;:&quot;vertical&quot;,&quot;curved&quot;:0,&quot;rounded&quot;:0};size=65;" vertex="1" parent="1">
          <mxGeometry x="1847" y="20" width="188" height="1850" as="geometry" />
        </mxCell>
        <mxCell id="jQxVS3LR43WCqaB9roRx-57" value="" style="html=1;points=[[0,0,0,0,5],[0,1,0,0,-5],[1,0,0,0,5],[1,1,0,0,-5]];perimeter=orthogonalPerimeter;outlineConnect=0;targetShapes=umlLifeline;portConstraint=eastwest;newEdgeStyle={&quot;curved&quot;:0,&quot;rounded&quot;:0};" vertex="1" parent="jQxVS3LR43WCqaB9roRx-9">
          <mxGeometry x="89" y="830" width="10" height="80" as="geometry" />
        </mxCell>
        <mxCell id="jQxVS3LR43WCqaB9roRx-10" value="ValidationService" style="shape=umlLifeline;perimeter=lifelinePerimeter;whiteSpace=wrap;container=1;dropTarget=0;collapsible=0;recursiveResize=0;outlineConnect=0;portConstraint=eastwest;newEdgeStyle={&quot;edgeStyle&quot;:&quot;elbowEdgeStyle&quot;,&quot;elbow&quot;:&quot;vertical&quot;,&quot;curved&quot;:0,&quot;rounded&quot;:0};size=65;" vertex="1" parent="1">
          <mxGeometry x="2085" y="20" width="150" height="1850" as="geometry" />
        </mxCell>
        <mxCell id="jQxVS3LR43WCqaB9roRx-61" value="" style="html=1;points=[[0,0,0,0,5],[0,1,0,0,-5],[1,0,0,0,5],[1,1,0,0,-5]];perimeter=orthogonalPerimeter;outlineConnect=0;targetShapes=umlLifeline;portConstraint=eastwest;newEdgeStyle={&quot;curved&quot;:0,&quot;rounded&quot;:0};" vertex="1" parent="jQxVS3LR43WCqaB9roRx-10">
          <mxGeometry x="70" y="510" width="10" height="330" as="geometry" />
        </mxCell>
        <mxCell id="jQxVS3LR43WCqaB9roRx-11" value="alt" style="shape=umlFrame;pointerEvents=0;dropTarget=0;strokeColor=#000000;height=20;width=30;strokeWidth=4;" vertex="1" parent="1">
          <mxGeometry x="210" y="347" width="1960" height="910" as="geometry" />
        </mxCell>
        <mxCell id="jQxVS3LR43WCqaB9roRx-12" value="[signChoice == 1]" style="text;strokeColor=none;fillColor=none;align=center;verticalAlign=middle;whiteSpace=wrap;" vertex="1" parent="jQxVS3LR43WCqaB9roRx-11">
          <mxGeometry x="30" width="1930" height="20" as="geometry" />
        </mxCell>
        <mxCell id="jQxVS3LR43WCqaB9roRx-13" value="[signChoice == 2]" style="shape=line;whiteSpace=wrap;verticalAlign=top;labelPosition=center;verticalLabelPosition=middle;align=center;strokeColor=#000000;strokeWidth=4;" vertex="1" parent="jQxVS3LR43WCqaB9roRx-11">
          <mxGeometry y="760" width="1960" height="3" as="geometry" />
        </mxCell>
        <mxCell id="jQxVS3LR43WCqaB9roRx-14" value="alt" style="shape=umlFrame;pointerEvents=0;dropTarget=0;strokeColor=#000000;height=20;width=30;strokeWidth=4;" vertex="1" parent="1">
          <mxGeometry x="85" y="1375" width="1247" height="346" as="geometry" />
        </mxCell>
        <mxCell id="jQxVS3LR43WCqaB9roRx-15" value="[result is true]" style="text;strokeColor=none;fillColor=none;align=center;verticalAlign=middle;whiteSpace=wrap;" vertex="1" parent="jQxVS3LR43WCqaB9roRx-14">
          <mxGeometry x="30" width="1217" height="20" as="geometry" />
        </mxCell>
        <mxCell id="jQxVS3LR43WCqaB9roRx-16" value="[result is false]" style="shape=line;whiteSpace=wrap;verticalAlign=top;labelPosition=center;verticalLabelPosition=middle;align=center;strokeColor=#000000;strokeWidth=4;" vertex="1" parent="jQxVS3LR43WCqaB9roRx-14">
          <mxGeometry y="190" width="1247" height="3" as="geometry" />
        </mxCell>
        <mxCell id="jQxVS3LR43WCqaB9roRx-17" value="Display menu options" style="curved=1;rounded=0;" edge="1" parent="1" source="jQxVS3LR43WCqaB9roRx-42" target="jQxVS3LR43WCqaB9roRx-2">
          <mxGeometry relative="1" as="geometry">
            <Array as="points">
              <mxPoint x="345" y="129" />
              <mxPoint x="345" y="159" />
            </Array>
          </mxGeometry>
        </mxCell>
        <mxCell id="jQxVS3LR43WCqaB9roRx-18" value="Read signChoice" style="curved=1;rounded=0;" edge="1" parent="1" source="jQxVS3LR43WCqaB9roRx-2" target="jQxVS3LR43WCqaB9roRx-2">
          <mxGeometry relative="1" as="geometry">
            <Array as="points">
              <mxPoint x="345" y="213" />
              <mxPoint x="345" y="243" />
            </Array>
          </mxGeometry>
        </mxCell>
        <mxCell id="jQxVS3LR43WCqaB9roRx-19" value="Read username and password" style="curved=1;rounded=0;" edge="1" parent="1" source="jQxVS3LR43WCqaB9roRx-2" target="jQxVS3LR43WCqaB9roRx-2">
          <mxGeometry relative="1" as="geometry">
            <Array as="points">
              <mxPoint x="345" y="297" />
              <mxPoint x="345" y="327" />
            </Array>
          </mxGeometry>
        </mxCell>
        <mxCell id="jQxVS3LR43WCqaB9roRx-20" value="Read mobileNumber" style="curved=1;rounded=0;" edge="1" parent="1" source="jQxVS3LR43WCqaB9roRx-2" target="jQxVS3LR43WCqaB9roRx-2">
          <mxGeometry relative="1" as="geometry">
            <Array as="points">
              <mxPoint x="345" y="428" />
              <mxPoint x="345" y="458" />
            </Array>
          </mxGeometry>
        </mxCell>
        <mxCell id="jQxVS3LR43WCqaB9roRx-21" value="ValidateMobileNumber(mobileNumber)" style="verticalAlign=bottom;endArrow=block;edgeStyle=elbowEdgeStyle;elbow=vertical;curved=0;rounded=0;" edge="1" parent="1" source="jQxVS3LR43WCqaB9roRx-2" target="jQxVS3LR43WCqaB9roRx-3">
          <mxGeometry relative="1" as="geometry">
            <Array as="points">
              <mxPoint x="481" y="512" />
            </Array>
          </mxGeometry>
        </mxCell>
        <mxCell id="jQxVS3LR43WCqaB9roRx-22" value="ValidateMobileNumber(mobileNumber)" style="verticalAlign=bottom;endArrow=block;edgeStyle=elbowEdgeStyle;elbow=vertical;curved=0;rounded=0;" edge="1" parent="1" source="jQxVS3LR43WCqaB9roRx-3" target="jQxVS3LR43WCqaB9roRx-10">
          <mxGeometry relative="1" as="geometry">
            <Array as="points">
              <mxPoint x="1413" y="566" />
            </Array>
          </mxGeometry>
        </mxCell>
        <mxCell id="jQxVS3LR43WCqaB9roRx-23" value="Send OTP to mobileNumber" style="verticalAlign=bottom;endArrow=block;edgeStyle=elbowEdgeStyle;elbow=vertical;curved=0;rounded=0;" edge="1" parent="1" source="jQxVS3LR43WCqaB9roRx-3" target="jQxVS3LR43WCqaB9roRx-2">
          <mxGeometry relative="1" as="geometry">
            <Array as="points">
              <mxPoint x="481" y="620" />
            </Array>
          </mxGeometry>
        </mxCell>
        <mxCell id="jQxVS3LR43WCqaB9roRx-24" value="Read OTP" style="curved=1;rounded=0;" edge="1" parent="1" source="jQxVS3LR43WCqaB9roRx-2" target="jQxVS3LR43WCqaB9roRx-2">
          <mxGeometry relative="1" as="geometry">
            <Array as="points">
              <mxPoint x="345" y="674" />
              <mxPoint x="345" y="704" />
            </Array>
          </mxGeometry>
        </mxCell>
        <mxCell id="jQxVS3LR43WCqaB9roRx-25" value="RegisterUser(user)" style="verticalAlign=bottom;endArrow=block;edgeStyle=elbowEdgeStyle;elbow=vertical;curved=0;rounded=0;" edge="1" parent="1" source="jQxVS3LR43WCqaB9roRx-2" target="jQxVS3LR43WCqaB9roRx-3">
          <mxGeometry relative="1" as="geometry">
            <Array as="points">
              <mxPoint x="481" y="758" />
            </Array>
          </mxGeometry>
        </mxCell>
        <mxCell id="jQxVS3LR43WCqaB9roRx-26" value="ConfirmOtp(genereatedOtp, otp)" style="verticalAlign=bottom;endArrow=block;edgeStyle=elbowEdgeStyle;elbow=vertical;curved=0;rounded=0;" edge="1" parent="1" source="jQxVS3LR43WCqaB9roRx-3" target="jQxVS3LR43WCqaB9roRx-10">
          <mxGeometry relative="1" as="geometry">
            <Array as="points">
              <mxPoint x="1413" y="812" />
            </Array>
          </mxGeometry>
        </mxCell>
        <mxCell id="jQxVS3LR43WCqaB9roRx-27" value="GetBalance(mobileNumber)" style="verticalAlign=bottom;endArrow=block;edgeStyle=elbowEdgeStyle;elbow=vertical;curved=0;rounded=0;" edge="1" parent="1" source="jQxVS3LR43WCqaB9roRx-3" target="jQxVS3LR43WCqaB9roRx-9">
          <mxGeometry relative="1" as="geometry">
            <Array as="points">
              <mxPoint x="1303" y="866" />
            </Array>
          </mxGeometry>
        </mxCell>
        <mxCell id="jQxVS3LR43WCqaB9roRx-28" value="GetAccountType()" style="verticalAlign=bottom;endArrow=block;edgeStyle=elbowEdgeStyle;elbow=vertical;curved=0;rounded=0;" edge="1" parent="1" source="jQxVS3LR43WCqaB9roRx-3" target="jQxVS3LR43WCqaB9roRx-9">
          <mxGeometry relative="1" as="geometry">
            <Array as="points">
              <mxPoint x="1303" y="920" />
            </Array>
          </mxGeometry>
        </mxCell>
        <mxCell id="jQxVS3LR43WCqaB9roRx-29" value="AddUser(user)" style="verticalAlign=bottom;endArrow=block;edgeStyle=elbowEdgeStyle;elbow=vertical;curved=0;rounded=0;" edge="1" parent="1" source="jQxVS3LR43WCqaB9roRx-52" target="jQxVS3LR43WCqaB9roRx-4">
          <mxGeometry relative="1" as="geometry">
            <Array as="points">
              <mxPoint x="782" y="974" />
            </Array>
          </mxGeometry>
        </mxCell>
        <mxCell id="jQxVS3LR43WCqaB9roRx-30" value="SignIn(username, password)" style="verticalAlign=bottom;endArrow=block;edgeStyle=elbowEdgeStyle;elbow=vertical;curved=0;rounded=0;" edge="1" parent="1" source="jQxVS3LR43WCqaB9roRx-2" target="jQxVS3LR43WCqaB9roRx-6">
          <mxGeometry relative="1" as="geometry">
            <Array as="points">
              <mxPoint x="818" y="1028" />
            </Array>
          </mxGeometry>
        </mxCell>
        <mxCell id="jQxVS3LR43WCqaB9roRx-31" value="GetByUsername(username)" style="verticalAlign=bottom;endArrow=block;edgeStyle=elbowEdgeStyle;elbow=vertical;curved=0;rounded=0;" edge="1" parent="1" source="jQxVS3LR43WCqaB9roRx-6" target="jQxVS3LR43WCqaB9roRx-8">
          <mxGeometry relative="1" as="geometry">
            <Array as="points">
              <mxPoint x="1532" y="1082" />
            </Array>
          </mxGeometry>
        </mxCell>
        <mxCell id="jQxVS3LR43WCqaB9roRx-32" value="SignIn(username, password)" style="verticalAlign=bottom;endArrow=block;edgeStyle=elbowEdgeStyle;elbow=vertical;curved=0;rounded=0;" edge="1" parent="1" source="jQxVS3LR43WCqaB9roRx-2" target="jQxVS3LR43WCqaB9roRx-6">
          <mxGeometry relative="1" as="geometry">
            <Array as="points">
              <mxPoint x="818" y="1183" />
            </Array>
          </mxGeometry>
        </mxCell>
        <mxCell id="jQxVS3LR43WCqaB9roRx-33" value="GetByUsername(username)" style="verticalAlign=bottom;endArrow=block;edgeStyle=elbowEdgeStyle;elbow=vertical;curved=0;rounded=0;" edge="1" parent="1" source="jQxVS3LR43WCqaB9roRx-6" target="jQxVS3LR43WCqaB9roRx-8">
          <mxGeometry relative="1" as="geometry">
            <Array as="points">
              <mxPoint x="1532" y="1237" />
            </Array>
          </mxGeometry>
        </mxCell>
        <mxCell id="jQxVS3LR43WCqaB9roRx-34" value="User" style="verticalAlign=bottom;endArrow=block;edgeStyle=elbowEdgeStyle;elbow=vertical;curved=0;rounded=0;" edge="1" parent="1" source="jQxVS3LR43WCqaB9roRx-8">
          <mxGeometry relative="1" as="geometry">
            <Array as="points">
              <mxPoint x="918" y="1301" />
            </Array>
            <mxPoint x="93.68181818181824" y="1301" as="targetPoint" />
          </mxGeometry>
        </mxCell>
        <mxCell id="jQxVS3LR43WCqaB9roRx-35" value="user.Password == password" style="verticalAlign=bottom;endArrow=block;edgeStyle=elbowEdgeStyle;elbow=vertical;curved=0;rounded=0;" edge="1" parent="1" source="jQxVS3LR43WCqaB9roRx-6">
          <mxGeometry relative="1" as="geometry">
            <Array as="points">
              <mxPoint x="718" y="1355" />
            </Array>
            <mxPoint x="93.68181818181824" y="1355" as="targetPoint" />
          </mxGeometry>
        </mxCell>
        <mxCell id="jQxVS3LR43WCqaB9roRx-36" value="CurrentLoggedInUser = user" style="verticalAlign=bottom;endArrow=block;edgeStyle=elbowEdgeStyle;elbow=vertical;curved=0;rounded=0;" edge="1" parent="1" source="jQxVS3LR43WCqaB9roRx-6">
          <mxGeometry relative="1" as="geometry">
            <Array as="points">
              <mxPoint x="718" y="1456" />
            </Array>
            <mxPoint x="93.68181818181824" y="1456" as="targetPoint" />
          </mxGeometry>
        </mxCell>
        <mxCell id="jQxVS3LR43WCqaB9roRx-37" value="Display CurrentLoggedInUser details" style="curved=1;rounded=0;" edge="1" parent="1" source="jQxVS3LR43WCqaB9roRx-2" target="jQxVS3LR43WCqaB9roRx-2">
          <mxGeometry relative="1" as="geometry">
            <Array as="points">
              <mxPoint x="345" y="1510" />
              <mxPoint x="345" y="1540" />
            </Array>
          </mxGeometry>
        </mxCell>
        <mxCell id="jQxVS3LR43WCqaB9roRx-38" value="Display error message" style="curved=1;rounded=0;" edge="1" parent="1" source="jQxVS3LR43WCqaB9roRx-49" target="jQxVS3LR43WCqaB9roRx-2">
          <mxGeometry x="-0.1407" y="15" relative="1" as="geometry">
            <Array as="points">
              <mxPoint x="345" y="1641" />
              <mxPoint x="345" y="1671" />
            </Array>
            <mxPoint as="offset" />
          </mxGeometry>
        </mxCell>
        <mxCell id="jQxVS3LR43WCqaB9roRx-39" value="ShowMenu(userAuthenticationService)" style="verticalAlign=bottom;endArrow=block;edgeStyle=elbowEdgeStyle;elbow=vertical;curved=0;rounded=0;" edge="1" parent="1" source="jQxVS3LR43WCqaB9roRx-2" target="jQxVS3LR43WCqaB9roRx-3">
          <mxGeometry relative="1" as="geometry">
            <Array as="points">
              <mxPoint x="481" y="1765" />
            </Array>
          </mxGeometry>
        </mxCell>
        <mxCell id="jQxVS3LR43WCqaB9roRx-40" value="" style="shape=umlLifeline;perimeter=lifelinePerimeter;whiteSpace=wrap;html=1;container=1;dropTarget=0;collapsible=0;recursiveResize=0;outlineConnect=0;portConstraint=eastwest;newEdgeStyle={&quot;curved&quot;:0,&quot;rounded&quot;:0};participant=umlActor;strokeWidth=3;" vertex="1" parent="1">
          <mxGeometry x="65" y="20" width="35" height="1870" as="geometry" />
        </mxCell>
        <mxCell id="jQxVS3LR43WCqaB9roRx-41" value="" style="html=1;points=[[0,0,0,0,5],[0,1,0,0,-5],[1,0,0,0,5],[1,1,0,0,-5]];perimeter=orthogonalPerimeter;outlineConnect=0;targetShapes=umlLifeline;portConstraint=eastwest;newEdgeStyle={&quot;curved&quot;:0,&quot;rounded&quot;:0};" vertex="1" parent="jQxVS3LR43WCqaB9roRx-40">
          <mxGeometry x="12.5" y="60" width="10" height="1770" as="geometry" />
        </mxCell>
        <mxCell id="jQxVS3LR43WCqaB9roRx-43" value="" style="curved=1;rounded=0;" edge="1" parent="1" source="jQxVS3LR43WCqaB9roRx-2" target="jQxVS3LR43WCqaB9roRx-42">
          <mxGeometry relative="1" as="geometry">
            <Array as="points" />
            <mxPoint x="294" y="129" as="sourcePoint" />
            <mxPoint x="294" y="159" as="targetPoint" />
          </mxGeometry>
        </mxCell>
        <mxCell id="jQxVS3LR43WCqaB9roRx-42" value="" style="html=1;points=[[0,0,0,0,5],[0,1,0,0,-5],[1,0,0,0,5],[1,1,0,0,-5]];perimeter=orthogonalPerimeter;outlineConnect=0;targetShapes=umlLifeline;portConstraint=eastwest;newEdgeStyle={&quot;curved&quot;:0,&quot;rounded&quot;:0};" vertex="1" parent="1">
          <mxGeometry x="290" y="120" width="10" height="420" as="geometry" />
        </mxCell>
        <mxCell id="jQxVS3LR43WCqaB9roRx-44" value="" style="html=1;points=[[0,0,0,0,5],[0,1,0,0,-5],[1,0,0,0,5],[1,1,0,0,-5]];perimeter=orthogonalPerimeter;outlineConnect=0;targetShapes=umlLifeline;portConstraint=eastwest;newEdgeStyle={&quot;curved&quot;:0,&quot;rounded&quot;:0};" vertex="1" parent="1">
          <mxGeometry x="290" y="600" width="10" height="170" as="geometry" />
        </mxCell>
        <mxCell id="jQxVS3LR43WCqaB9roRx-45" value="" style="html=1;points=[[0,0,0,0,5],[0,1,0,0,-5],[1,0,0,0,5],[1,1,0,0,-5]];perimeter=orthogonalPerimeter;outlineConnect=0;targetShapes=umlLifeline;portConstraint=eastwest;newEdgeStyle={&quot;curved&quot;:0,&quot;rounded&quot;:0};" vertex="1" parent="1">
          <mxGeometry x="641.5" y="500" width="10" height="130" as="geometry" />
        </mxCell>
        <mxCell id="jQxVS3LR43WCqaB9roRx-46" value="" style="html=1;points=[[0,0,0,0,5],[0,1,0,0,-5],[1,0,0,0,5],[1,1,0,0,-5]];perimeter=orthogonalPerimeter;outlineConnect=0;targetShapes=umlLifeline;portConstraint=eastwest;newEdgeStyle={&quot;curved&quot;:0,&quot;rounded&quot;:0};" vertex="1" parent="1">
          <mxGeometry x="641.5" y="740" width="10" height="260" as="geometry" />
        </mxCell>
        <mxCell id="jQxVS3LR43WCqaB9roRx-47" value="" style="html=1;points=[[0,0,0,0,5],[0,1,0,0,-5],[1,0,0,0,5],[1,1,0,0,-5]];perimeter=orthogonalPerimeter;outlineConnect=0;targetShapes=umlLifeline;portConstraint=eastwest;newEdgeStyle={&quot;curved&quot;:0,&quot;rounded&quot;:0};" vertex="1" parent="1">
          <mxGeometry x="290" y="1010" width="10" height="210" as="geometry" />
        </mxCell>
        <mxCell id="jQxVS3LR43WCqaB9roRx-48" value="" style="html=1;points=[[0,0,0,0,5],[0,1,0,0,-5],[1,0,0,0,5],[1,1,0,0,-5]];perimeter=orthogonalPerimeter;outlineConnect=0;targetShapes=umlLifeline;portConstraint=eastwest;newEdgeStyle={&quot;curved&quot;:0,&quot;rounded&quot;:0};" vertex="1" parent="1">
          <mxGeometry x="290" y="1480" width="10" height="80" as="geometry" />
        </mxCell>
        <mxCell id="jQxVS3LR43WCqaB9roRx-50" value="" style="curved=1;rounded=0;" edge="1" parent="1" source="jQxVS3LR43WCqaB9roRx-2" target="jQxVS3LR43WCqaB9roRx-49">
          <mxGeometry relative="1" as="geometry">
            <Array as="points" />
            <mxPoint x="294" y="1641" as="sourcePoint" />
            <mxPoint x="294" y="1671" as="targetPoint" />
          </mxGeometry>
        </mxCell>
        <mxCell id="jQxVS3LR43WCqaB9roRx-49" value="" style="html=1;points=[[0,0,0,0,5],[0,1,0,0,-5],[1,0,0,0,5],[1,1,0,0,-5]];perimeter=orthogonalPerimeter;outlineConnect=0;targetShapes=umlLifeline;portConstraint=eastwest;newEdgeStyle={&quot;curved&quot;:0,&quot;rounded&quot;:0};" vertex="1" parent="1">
          <mxGeometry x="290" y="1620" width="10" height="80" as="geometry" />
        </mxCell>
        <mxCell id="jQxVS3LR43WCqaB9roRx-53" value="" style="verticalAlign=bottom;endArrow=block;edgeStyle=elbowEdgeStyle;elbow=vertical;curved=0;rounded=0;" edge="1" parent="1" source="jQxVS3LR43WCqaB9roRx-3" target="jQxVS3LR43WCqaB9roRx-52">
          <mxGeometry relative="1" as="geometry">
            <Array as="points" />
            <mxPoint x="646" y="974" as="sourcePoint" />
            <mxPoint x="897" y="974" as="targetPoint" />
          </mxGeometry>
        </mxCell>
        <mxCell id="jQxVS3LR43WCqaB9roRx-52" value="" style="html=1;points=[[0,0,0,0,5],[0,1,0,0,-5],[1,0,0,0,5],[1,1,0,0,-5]];perimeter=orthogonalPerimeter;outlineConnect=0;targetShapes=umlLifeline;portConstraint=eastwest;newEdgeStyle={&quot;curved&quot;:0,&quot;rounded&quot;:0};" vertex="1" parent="1">
          <mxGeometry x="890" y="950" width="10" height="50" as="geometry" />
        </mxCell>
        <mxCell id="jQxVS3LR43WCqaB9roRx-60" value="" style="html=1;points=[[0,0,0,0,5],[0,1,0,0,-5],[1,0,0,0,5],[1,1,0,0,-5]];perimeter=orthogonalPerimeter;outlineConnect=0;targetShapes=umlLifeline;portConstraint=eastwest;newEdgeStyle={&quot;curved&quot;:0,&quot;rounded&quot;:0};" vertex="1" parent="1">
          <mxGeometry x="1717" y="1190" width="10" height="60" as="geometry" />
        </mxCell>
      </root>
    </mxGraphModel>
  </diagram>
</mxfile>
